<svg xmlns:xlink="http://www.w3.org/1999/xlink" width="192" xmlns="http://www.w3.org/2000/svg" height="192" id="screenshot-d3c55f53-74d9-800f-8001-83820fb25f75" viewBox="0 0 192 192" style="-webkit-print-color-adjust: exact;" fill="none" version="1.1"><g id="shape-d3c55f53-74d9-800f-8001-83820fb25f75" rx="0" ry="0" style="fill: rgb(0, 0, 0);"><g id="shape-d3c55f53-74d9-800f-8001-83820fb2a459" rx="0" ry="0" style="fill: rgb(0, 0, 0);"><g id="shape-d3c55f53-74d9-800f-8001-83820fb2a45c" rx="0" ry="0" style="fill: rgb(0, 0, 0);"><g id="shape-d3c55f53-74d9-800f-8001-83820fb2a45d"><g id="fills-d3c55f53-74d9-800f-8001-83820fb2a45d"><path rx="0" ry="0" d="M0,96.008C0,82.85,2.508,70.409,7.54,58.701C12.564,46.977,19.424,36.809,28.123,28.106C36.811,19.431,47.003,12.543,58.699,7.531C70.391,2.504,82.826,0,95.99,0C109.162,0,121.593,2.504,133.305,7.539C145.029,12.551,155.201,19.447,163.889,28.114C172.588,36.821,179.432,46.981,184.472,58.709C189.48,70.409,192,82.846,192,96.016C192,109.185,189.484,121.614,184.472,133.33C179.432,145.015,172.584,155.226,163.889,163.897C155.201,172.608,145.021,179.473,133.305,184.477C121.593,189.504,109.162,192,95.99,192C82.826,192,70.391,189.504,58.695,184.469C46.999,179.465,36.807,172.592,28.119,163.89C19.42,155.218,12.56,145.011,7.536,133.322C2.508,121.607,0,109.177,0,96.008ZZ" style="fill: rgb(45, 13, 59); fill-opacity: 1;"/></g></g></g></g><g id="shape-d3c55f53-74d9-800f-8001-83820fb2a45a" rx="0" ry="0" style="fill: rgb(0, 0, 0);"><g id="shape-d3c55f53-74d9-800f-8001-83820fb2a45e" rx="0" ry="0" style="fill: rgb(0, 0, 0);"><g id="shape-d3c55f53-74d9-800f-8001-83820fb2a45f"><g id="fills-d3c55f53-74d9-800f-8001-83820fb2a45f"><path rx="0" ry="0" d="M73.123,108.799L110.094,98.897C113.277,98.034,116.557,99.867,117.417,103.048L123.793,126.052C124.649,129.233,122.773,132.457,119.589,133.305L82.615,143.167L85.499,153.597L85.499,153.597C85.883,154.992,85.755,156.498,85.015,157.87C83.483,160.744,79.859,161.82,76.967,160.334L39.224,140.786L39.208,140.786L39.208,140.786C39.06,140.707,38.948,140.633,38.808,140.542C36.029,138.863,35.161,135.213,36.893,132.457L59.18,97.096C59.928,95.732,61.24,94.64,62.9,94.218C66.087,93.339,69.367,95.196,70.235,98.353L73.123,108.799ZZ" style="fill: rgb(255, 255, 255); fill-opacity: 1;"/></g></g></g></g><g id="shape-d3c55f53-74d9-800f-8001-83820fb2a45b" rx="0" ry="0" style="fill: rgb(0, 0, 0);"><g id="shape-d3c55f53-74d9-800f-8001-83820fb2a460" rx="0" ry="0" style="fill: rgb(0, 0, 0);"><g id="shape-d3c55f53-74d9-800f-8001-83820fb2a461"><g id="fills-d3c55f53-74d9-800f-8001-83820fb2a461"><path rx="0" ry="0" d="M118.887,79.242L81.918,89.086C78.706,89.969,75.422,88.129,74.558,84.976L68.206,61.926C67.354,58.797,69.222,55.558,72.41,54.734L109.37,44.835L106.478,34.435L106.518,34.435C106.134,33.043,106.262,31.538,106.966,30.159C108.51,27.286,112.119,26.171,115.055,27.66L152.767,47.227L152.803,47.246L152.803,47.246C152.927,47.329,153.055,47.357,153.191,47.451C155.987,49.177,156.831,52.787,155.107,55.534L132.807,90.876C132.059,92.271,130.759,93.354,129.095,93.796C125.911,94.639,122.623,92.795,121.759,89.658L118.887,79.242ZZ" style="fill: rgb(255, 255, 255); fill-opacity: 1;"/></g></g></g></g></g></svg>